HIERARCHY
ROOT Hips
{
	OFFSET 0.00000 0.00000 0.00000
	CHANNELS 6 Xposition Yposition Zposition Zrotation Yrotation Xrotation 
	JOINT LHipJoint
	{
		OFFSET 0 0 0
		CHANNELS 3 Zrotation Yrotation Xrotation
		JOINT LeftHip
		{
			OFFSET 1.59801 -1.77853 0.57028
			CHANNELS 3 Zrotation Yrotation Xrotation
			JOINT LeftKnee
			{
				OFFSET 2.39439 -6.57854 0.00000
				CHANNELS 3 Zrotation Yrotation Xrotation
				JOINT LeftAnkle
				{
					OFFSET 2.69334 -7.39989 0.00000
					CHANNELS 3 Zrotation Yrotation Xrotation
					JOINT LeftToe
					{
						OFFSET 0.09553 -0.26245 1.73747
						CHANNELS 3 Zrotation Yrotation Xrotation
						End Site
						{
							OFFSET 0.00000 -0.00000 0.89391
						}
					}
				}
			}
		}
	}
	JOINT RHipJoint
	{
		OFFSET 0 0 0
		CHANNELS 3 Zrotation Yrotation Xrotation
		JOINT RightHip
		{
			OFFSET -1.54704 -1.77852 0.57028
			CHANNELS 3 Zrotation Yrotation Xrotation
			JOINT RightKnee
			{
				OFFSET -2.40286 -6.60180 0.00000
				CHANNELS 3 Zrotation Yrotation Xrotation
				JOINT RightAnkle
				{
					OFFSET -2.63873 -7.24984 0.00000
					CHANNELS 3 Zrotation Yrotation Xrotation
					JOINT RightToe
					{
						OFFSET -0.15631 -0.42945 1.84436
						CHANNELS 3 Zrotation Yrotation Xrotation
						End Site
						{
							OFFSET -0.00000 -0.00000 0.95734
						}
					}
				}
			}
		}
	}
	JOINT lowerback
	{
		OFFSET 0 0 0
		CHANNELS 3 Zrotation Yrotation Xrotation
		JOINT Chest
		{
			OFFSET -0.00436 1.89866 -0.04018
			CHANNELS 3 Zrotation Yrotation Xrotation
			JOINT Chest2
			{
				OFFSET 0.02031 1.88273 0.09634
				CHANNELS 3 Zrotation Yrotation Xrotation
				JOINT lowerneck
				{
					OFFSET 0 0 0
					CHANNELS 3 Zrotation Yrotation Xrotation
					JOINT Neck
					{
						OFFSET -0.13105 1.89371 0.23083
						CHANNELS 3 Zrotation Yrotation Xrotation
						JOINT Head
						{
							OFFSET 0.17062 1.83990 -0.54062
							CHANNELS 3 Zrotation Yrotation Xrotation
							End Site
							{
								OFFSET 0.04576 1.94782 -0.21839
							}
						}
					}
				}
				JOINT LeftCollar
				{
					OFFSET 0 0 0
					CHANNELS 3 Zrotation Yrotation Xrotation
					JOINT LeftShoulder
					{
						OFFSET 3.12424 1.09204 0.22226
CHANNELS 3 Zrotation Xrotation Yrotation
						JOINT LeftElbow
						{
OFFSET 0 -5.292770 0.000000
CHANNELS 3 Zrotation Xrotation Yrotation
							JOINT LeftWrist
							{
OFFSET 0 -2.852260 0.000000
CHANNELS 3 Zrotation Xrotation Yrotation
								JOINT lhand
								{
									OFFSET 0 0 0
CHANNELS 3 Zrotation Xrotation Yrotation
									JOINT LFingers
									{
OFFSET 0 -0.602100 0.000000
CHANNELS 3 Zrotation Xrotation Yrotation
										End Site
										{
OFFSET 0 -0.485430 0.000000
										}
									}
								}
								JOINT LThumb
								{
OFFSET 0 0.000000 0.000000
CHANNELS 3 Zrotation Xrotation Yrotation
									End Site
									{
OFFSET 0 -0.492840 0.492840
									}
								}
							}
						}
					}
				}
				JOINT RightCollar
				{
					OFFSET 0 0 0
					CHANNELS 3 Zrotation Yrotation Xrotation
					JOINT RightShoulder
					{
						OFFSET -2.91709 1.01504 0.30199
CHANNELS 3 Zrotation Xrotation Yrotation
						JOINT RightElbow
						{
OFFSET 0 -5.133040 0.000000
CHANNELS 3 Zrotation Xrotation Yrotation
							JOINT RightWrist
							{
OFFSET 0 -2.743050 0.000000
CHANNELS 3 Zrotation Xrotation Yrotation
								JOINT rhand
								{
									OFFSET 0 0 0
CHANNELS 3 Zrotation Xrotation Yrotation
									JOINT RFingers
									{
OFFSET 0 -0.767980 0.000000
CHANNELS 3 Zrotation Xrotation Yrotation
										End Site
										{
OFFSET 0 -0.619160 0.000000
										}
									}
								}
								JOINT RThumb
								{
OFFSET 0 0.000000 0.000000
CHANNELS 3 Zrotation Xrotation Yrotation
									End Site
									{
OFFSET 0 -0.628620 0.628620
									}
								}
							}
						}
					}
				}
			}
		}
	}
}
MOTION
Frames: 7
Frame Time: 0.008333333333333333
1.958908 16.219556 -1.421362 3.117720 -40.311525 33.865567 0.000000 0.000000 0.000000 -27.288177 -6.248494 -63.997438 6.848502 15.202980 48.299052 1.743944 4.407688 -26.852344 0.539347 -4.705363 -13.070137 0.000000 0.000000 0.000000 -18.802587 30.718808 -68.872804 -4.284000 -12.528998 37.630156 0.175552 18.190536 -11.123606 -1.669232 8.140160 -23.140595 -3.699983 -1.807287 33.490406 3.883791 -3.387519 9.110003 7.277719 -1.809679 -6.681231 -16.383266 -12.042176 -17.877065 20.047699 -16.083603 13.001608 7.174987 -6.671346 10.233866 0.000000 0.000000 0.000000 100.201672 -75.001275 93.928226 2.893364 -4.996620 0.126269 -14.025052 8.527688 -26.493146 0.000000 0.000000 0.000000 -7.125000 0.000000 0.000000 -43.402817 51.190995 7.888303 0.000000 0.000000 0.000000 -63.896170 -65.582596 -42.496551 -19.435201 -29.945655 -5.251453 0.232269 0.479519 -14.888189 0.000000 0.000000 0.000000 7.125000 0.000000 0.000000 18.634991 15.569122 13.704743
2.015393 16.179841 -1.382815 3.444783 -41.654073 33.187137 0.000000 0.000000 0.000000 -28.364594 -5.461489 -64.010784 6.999549 15.331551 48.872572 1.760225 4.892724 -27.216322 0.568716 -4.829533 -13.423120 0.000000 0.000000 0.000000 -19.305861 30.906694 -69.140981 -4.408600 -12.685080 38.200896 0.236585 19.237480 -11.391319 -1.813773 8.466868 -24.141253 -4.387514 -1.659628 33.221726 4.214149 -3.413823 9.397638 7.989147 -1.868438 -6.216565 -16.852737 -11.955408 -17.889794 18.397735 -15.416062 12.764295 6.767938 -6.519925 9.867681 0.000000 0.000000 0.000000 109.211480 -85.203885 103.200384 5.321673 -9.125533 0.425899 -18.834941 4.356003 -24.022631 0.000000 0.000000 0.000000 -7.125000 0.000000 0.000000 -45.433369 48.511762 4.883874 0.000000 0.000000 0.000000 -68.321939 -77.289776 -53.116183 -13.059727 -21.372991 -2.476116 1.192612 7.523101 -16.999225 0.000000 0.000000 0.000000 7.125000 0.000000 0.000000 19.067337 13.597844 14.917530
2.040862 16.228407 -1.348843 3.610593 -42.835699 31.467518 0.000000 0.000000 0.000000 -29.343125 -3.877819 -62.245264 6.875722 15.226315 48.402690 1.837605 4.363274 -27.477092 0.462170 -4.360602 -12.093420 0.000000 0.000000 0.000000 -19.470955 32.395473 -67.161984 -4.289772 -12.536237 37.656519 0.193036 18.934971 -11.556777 -1.842493 8.529970 -24.335716 -4.353462 -1.448611 32.637306 4.113737 -3.178550 9.870396 7.741903 -1.810853 -5.522052 -16.975000 -12.407852 -17.623224 17.405244 -15.847403 12.873105 6.344556 -6.813987 9.838095 0.000000 0.000000 0.000000 252.892961 -87.072889 -118.787004 8.497122 -14.354913 1.072479 -26.506610 -7.415425 -23.118304 0.000000 0.000000 0.000000 -7.125000 0.000000 0.000000 -50.412678 46.626313 2.727104 0.000000 0.000000 0.000000 -62.513182 -84.910623 -49.567577 -12.036554 -19.859199 -2.114826 2.270406 5.162105 -17.394276 0.000000 0.000000 0.000000 7.125000 0.000000 0.000000 19.711465 13.254366 15.642248
2.070978 16.293192 -1.302263 3.801002 -43.156581 28.905995 0.000000 0.000000 0.000000 -30.109966 -2.298638 -59.265209 6.599095 14.984721 47.341201 1.875371 4.362633 -27.732836 0.520468 -4.613494 -12.811135 0.000000 0.000000 0.000000 -18.522155 33.690828 -63.695982 -4.174152 -12.388596 37.120933 0.111369 18.282268 -11.819767 -1.732097 8.284217 -23.580750 -3.218814 -1.570945 32.250696 4.167584 -2.974617 9.587058 7.119092 -1.688873 -5.760854 -16.996285 -12.378883 -16.126605 16.702858 -15.865540 12.798866 6.147228 -6.952855 9.473661 0.000000 0.000000 0.000000 262.692468 -83.265188 -122.143599 11.009197 -18.301785 1.779262 -28.910048 -23.948292 -23.847866 0.000000 0.000000 0.000000 -7.125000 0.000000 0.000000 -52.604585 46.780802 3.211925 0.000000 0.000000 0.000000 -26.070656 -86.739642 -7.691452 -13.913657 -22.610142 -2.795434 3.876223 -3.582514 -16.922316 0.000000 0.000000 0.000000 7.125000 0.000000 0.000000 20.758064 13.731714 16.371495
2.101236 16.368487 -1.246438 3.794177 -42.711141 25.989940 0.000000 0.000000 0.000000 -30.181450 -1.231860 -55.347596 6.262446 14.677885 46.026025 1.874907 4.465886 -27.781099 0.501140 -4.537435 -12.593941 0.000000 0.000000 0.000000 -15.970702 34.093647 -59.067734 -4.022045 -12.189623 36.406334 0.117797 18.312643 -11.781134 -1.746181 8.315907 -23.677888 -1.686815 -1.788609 31.056385 4.358700 -2.720725 9.500641 6.853140 -1.522017 -5.910044 -16.982640 -12.869981 -16.265182 17.234820 -16.710539 13.150213 6.164162 -7.281703 9.832535 0.000000 0.000000 0.000000 252.711101 -83.145938 -142.193524 14.098757 -22.874623 2.867072 -31.941479 -38.065542 -25.514579 0.000000 0.000000 0.000000 -7.125000 0.000000 0.000000 -55.961835 47.482993 4.968928 0.000000 0.000000 0.000000 -22.242645 -86.075466 0.730009 -17.250301 -27.185551 -4.201631 3.985495 -13.750390 -14.861244 0.000000 0.000000 0.000000 7.125000 0.000000 0.000000 21.045321 15.663877 15.692092
2.112166 16.456876 -1.169912 4.276358 -42.216508 22.115618 0.000000 0.000000 0.000000 -30.592484 -0.062982 -50.282324 5.821002 14.252466 44.258825 1.832047 5.042933 -27.787427 0.472266 -4.407433 -12.225765 0.000000 0.000000 0.000000 -13.006218 34.040903 -53.373226 -3.873777 -11.990496 35.698427 0.114404 18.783930 -12.176944 -1.511016 7.763035 -21.996674 -0.997722 -1.914443 29.309768 4.867943 -2.658393 9.305837 6.902655 -1.508232 -5.334435 -16.756413 -12.868719 -16.206020 18.629488 -16.880173 11.675459 6.574499 -7.284758 9.489909 0.000000 0.000000 0.000000 217.316582 -84.700689 53.660707 18.116502 -28.302531 4.606187 -32.801722 -50.534912 -27.431874 0.000000 0.000000 0.000000 -7.125000 0.000000 0.000000 -58.244770 48.673046 7.770557 0.000000 0.000000 0.000000 -51.802758 -84.972341 -24.379257 -20.893852 -31.701722 -5.995222 3.426013 -21.410568 -15.435705 0.000000 0.000000 0.000000 7.125000 0.000000 0.000000 20.627920 15.118812 15.595007
2.087152 16.568735 -1.061830 4.036821 -41.170530 18.240429 0.000000 0.000000 0.000000 -30.199670 1.119364 -44.215382 5.310920 13.725489 42.148863 1.819186 5.488321 -27.938545 0.429666 -4.203783 -11.651213 0.000000 0.000000 0.000000 -8.736007 33.599304 -46.352642 -3.631362 -11.652976 34.515245 0.070387 18.934719 -12.694084 -1.551965 7.862720 -22.297935 0.287937 -2.029491 27.277055 5.485703 -2.454389 8.994830 6.667049 -1.413545 -4.771201 -16.228636 -13.161568 -16.917344 20.106867 -17.362737 9.854264 6.859194 -7.398068 9.224790 0.000000 0.000000 0.000000 173.087556 -83.987579 124.787260 24.236397 -35.409767 7.844624 -30.930404 -58.883779 -27.815635 0.000000 0.000000 0.000000 -7.125000 0.000000 0.000000 -57.381990 49.256733 8.657987 0.000000 0.000000 0.000000 -73.265274 -81.045633 -40.270933 -26.261923 -37.464345 -9.047176 4.552156 -29.330722 -13.489027 0.000000 0.000000 0.000000 7.125000 0.000000 0.000000 21.569373 16.949818 15.490196
